<svg id="グループ_36" data-name="グループ 36" xmlns="http://www.w3.org/2000/svg" width="57.247" height="8.587" viewBox="0 0 57.247 8.587">
  <path id="パス_157" data-name="パス 157" d="M4.519,0,5.932,2.825l3.107.452-2.26,2.2.508,3.107L4.519,7.118,1.751,8.587,2.26,5.48,0,3.277l3.107-.452Z" fill="#3b4043"/>
  <path id="パス_158" data-name="パス 158" d="M4.519,0,5.932,2.825l3.107.452-2.26,2.2.508,3.107L4.519,7.118,1.751,8.587,2.26,5.48,0,3.277l3.107-.452Z" transform="translate(12.052)" fill="#3b4043"/>
  <path id="パス_159" data-name="パス 159" d="M4.519,0,5.932,2.825l3.107.452-2.26,2.2.508,3.107L4.519,7.118,1.751,8.587,2.26,5.48,0,3.277l3.107-.452Z" transform="translate(24.104)" fill="#3b4043"/>
  <path id="パス_160" data-name="パス 160" d="M4.519,0,5.932,2.825l3.107.452-2.26,2.2.508,3.107L4.519,7.118,1.751,8.587,2.26,5.48,0,3.277l3.107-.452Z" transform="translate(36.156)" fill="#3b4043"/>
  <path id="パス_161" data-name="パス 161" d="M4.519,0,5.932,2.825l3.107.452-2.26,2.2.508,3.107L4.519,7.118,1.751,8.587,2.26,5.48,0,3.277l3.107-.452Z" transform="translate(48.208)" fill="#7f7f7f" opacity="0.5"/>
</svg>
